<svg version="1.1" id="Layer_1" xmlns="http://www.w3.org/2000/svg" xmlns:xlink="http://www.w3.org/1999/xlink" x="0px" y="0px"
	 width="100%" viewBox="0 0 180 180" enable-background="new 0 0 180 180" xml:space="preserve">
<path fill="#000000" opacity="1.000000" stroke="none" 
	d="
M181.000000,82.000000 
	C181.000000,114.962364 181.000000,147.924728 181.000000,180.943542 
	C121.106102,180.943542 61.212128,180.943542 1.000000,180.943542 
	C1.000000,146.313080 1.000000,111.625198 1.348404,76.228271 
	C2.093060,76.024521 2.729650,76.478539 2.850039,77.042702 
	C5.206614,88.086082 10.689490,97.416771 18.695004,105.212868 
	C26.569517,112.881386 36.614307,116.853844 46.539505,121.086601 
	C55.216293,124.786957 64.277184,128.259186 69.409149,137.054962 
	C71.214584,140.149338 72.500267,143.546951 74.564079,147.963425 
	C75.352829,139.997116 72.726830,128.142059 69.509613,120.912811 
	C61.701813,103.368355 49.160503,89.279625 36.708477,75.067848 
	C32.951786,70.780251 29.878391,65.893959 26.491995,61.281914 
	C26.989477,60.890572 27.486959,60.499229 27.984442,60.107883 
	C36.171852,69.117775 44.132835,78.347572 52.609947,87.076111 
	C61.196541,95.917374 68.054642,105.868027 73.314064,117.923279 
	C74.273499,116.096207 74.803955,115.439980 74.978790,114.699753 
	C77.386116,104.507568 76.617439,94.367355 75.194931,84.070663 
	C73.468712,71.575676 66.364601,62.881603 56.734470,56.005054 
	C48.998055,50.480751 40.232674,46.368038 32.655586,40.657990 
	C24.496933,34.509670 18.677704,26.472799 19.693998,14.178400 
	C18.263029,15.337563 17.187737,15.826721 16.702566,16.659626 
	C10.646860,27.055635 5.048235,37.650719 2.867536,49.687073 
	C2.770981,50.220005 1.645963,50.566608 1.000000,51.000000 
	C1.000000,34.358864 1.000000,17.717726 1.000000,1.038295 
	C60.882542,1.038295 120.765114,1.038295 181.000000,1.038295 
	C181.000000,19.352724 181.000000,37.707703 180.618561,56.489563 
	C179.850906,56.235584 179.235901,55.593761 179.112061,54.868122 
	C176.278229,38.262581 168.553772,23.589092 160.960571,8.869896 
	C160.191483,7.379059 159.023758,6.093863 157.395813,3.806769 
	C156.600357,9.720019 157.203934,15.087158 155.064301,18.924885 
	C151.484619,25.345484 147.036392,31.904886 141.362579,36.395473 
	C131.768280,43.988972 120.987183,50.100262 110.602028,56.671883 
	C101.957466,62.142067 94.130051,68.503937 89.398994,77.714157 
	C85.823349,84.675087 84.137215,92.297447 82.819901,100.091347 
	C81.421165,108.366982 81.021767,116.549210 82.000610,124.791824 
	C82.502426,129.017532 83.792778,133.149612 84.726768,137.323990 
	C101.579781,106.969147 126.660713,84.627632 149.628036,60.584736 
	C149.752457,60.743427 150.034668,61.031548 149.992477,61.397705 
	C147.615021,64.908913 145.225098,68.015198 142.959564,71.209702 
	C140.599442,74.537582 138.636490,78.186508 136.007034,81.275536 
	C131.052017,87.096603 125.250153,92.247208 120.686478,98.340256 
	C111.841965,110.148743 102.665810,121.706612 95.394028,134.698135 
	C89.642548,144.973541 87.373436,156.134933 84.576279,167.230484 
	C84.095604,169.137177 84.729340,171.324799 84.870850,173.772949 
	C85.903419,173.143768 86.249481,173.026581 86.452225,172.787750 
	C86.767822,172.415955 87.045570,171.986893 87.236862,171.538391 
	C92.360786,159.524994 102.345581,152.988342 113.627274,147.734390 
	C125.221085,142.335037 137.351013,137.679260 148.021362,130.798477 
	C164.752045,120.009720 174.817368,103.909004 179.106110,84.337524 
	C179.297974,83.462051 180.349106,82.774879 181.000000,82.000000 
z"/>
<path fill="#03693A" opacity="1.000000" stroke="none" 
	d="
M181.000000,81.531349 
	C180.349106,82.774879 179.297974,83.462051 179.106110,84.337524 
	C174.817368,103.909004 164.752045,120.009720 148.021362,130.798477 
	C137.351013,137.679260 125.221085,142.335037 113.627274,147.734390 
	C102.345581,152.988342 92.360786,159.524994 87.236862,171.538391 
	C87.045570,171.986893 86.767822,172.415955 86.452225,172.787750 
	C86.249481,173.026581 85.903419,173.143768 84.870850,173.772949 
	C84.729340,171.324799 84.095604,169.137177 84.576279,167.230484 
	C87.373436,156.134933 89.642548,144.973541 95.394028,134.698135 
	C102.665810,121.706612 111.841965,110.148743 120.686478,98.340256 
	C125.250153,92.247208 131.052017,87.096603 136.007034,81.275536 
	C138.636490,78.186508 140.599442,74.537582 142.959564,71.209702 
	C145.225098,68.015198 147.615021,64.908913 150.256775,61.331711 
	C150.833313,60.488655 151.103363,60.077755 151.373413,59.666855 
	C150.750153,59.919918 150.126877,60.172981 149.503616,60.426044 
	C126.660713,84.627632 101.579781,106.969147 84.726768,137.323990 
	C83.792778,133.149612 82.502426,129.017532 82.000610,124.791824 
	C81.021767,116.549210 81.421165,108.366982 82.819901,100.091347 
	C84.137215,92.297447 85.823349,84.675087 89.398994,77.714157 
	C94.130051,68.503937 101.957466,62.142067 110.602028,56.671883 
	C120.987183,50.100262 131.768280,43.988972 141.362579,36.395473 
	C147.036392,31.904886 151.484619,25.345484 155.064301,18.924885 
	C157.203934,15.087158 156.600357,9.720019 157.395813,3.806769 
	C159.023758,6.093863 160.191483,7.379059 160.960571,8.869896 
	C168.553772,23.589092 176.278229,38.262581 179.112061,54.868122 
	C179.235901,55.593761 179.850906,56.235584 180.618561,56.958221 
	C181.000000,65.020897 181.000000,73.041801 181.000000,81.531349 
z"/>
<path fill="#88BE45" opacity="1.000000" stroke="none" 
	d="
M1.000000,51.468651 
	C1.645963,50.566608 2.770981,50.220005 2.867536,49.687073 
	C5.048235,37.650719 10.646860,27.055635 16.702566,16.659626 
	C17.187737,15.826721 18.263029,15.337563 19.693998,14.178400 
	C18.677704,26.472799 24.496933,34.509670 32.655586,40.657990 
	C40.232674,46.368038 48.998055,50.480751 56.734470,56.005054 
	C66.364601,62.881603 73.468712,71.575676 75.194931,84.070663 
	C76.617439,94.367355 77.386116,104.507568 74.978790,114.699753 
	C74.803955,115.439980 74.273499,116.096207 73.314064,117.923279 
	C68.054642,105.868027 61.196541,95.917374 52.609947,87.076111 
	C44.132835,78.347572 36.171852,69.117775 27.984442,60.107883 
	C27.486959,60.499229 26.989477,60.890572 26.491995,61.281914 
	C29.878391,65.893959 32.951786,70.780251 36.708477,75.067848 
	C49.160503,89.279625 61.701813,103.368355 69.509613,120.912811 
	C72.726830,128.142059 75.352829,139.997116 74.564079,147.963425 
	C72.500267,143.546951 71.214584,140.149338 69.409149,137.054962 
	C64.277184,128.259186 55.216293,124.786957 46.539505,121.086601 
	C36.614307,116.853844 26.569517,112.881386 18.695004,105.212868 
	C10.689490,97.416771 5.206614,88.086082 2.850039,77.042702 
	C2.729650,76.478539 2.093060,76.024521 1.348404,75.759613 
	C1.000000,67.979103 1.000000,59.958202 1.000000,51.468651 
M25.479801,59.731075 
	C25.916872,59.895466 26.353945,60.059856 26.791016,60.224247 
	C26.503031,59.880558 26.215046,59.536873 25.479801,59.731075 
z"/>
<path fill="#000000" opacity="1.000000" stroke="none" 
	d="
M149.628036,60.584736 
	C150.126877,60.172981 150.750153,59.919918 151.373413,59.666855 
	C151.103363,60.077755 150.833313,60.488655 150.298965,60.965553 
	C150.034668,61.031548 149.752457,60.743427 149.628036,60.584736 
z"/>
<path fill="#000000" opacity="1.000000" stroke="none" 
	d="
M25.703430,59.462128 
	C26.215046,59.536873 26.503031,59.880558 26.791016,60.224247 
	C26.353945,60.059856 25.916872,59.895466 25.703430,59.462128 
z"/>
</svg>